<?xml version="1.0" encoding="UTF-8"?><svg id="Layer_1" xmlns="http://www.w3.org/2000/svg" viewBox="0 0 639.81 489.14"><defs><style>.cls-1{fill:#fcc80d;}.cls-2{fill:#7d7d7d;stroke:#7d7d7d;stroke-miterlimit:10;stroke-width:2px;}</style></defs><g><path class="cls-1" d="M213.68,249.85s.02,0,.04,0c4.43-1.17,9.99-2.16,16.77-2.96,3.66-.65,6.87-1.22,9.27-1.63,1.24-.21,2.25-.4,3.01-.53-38.98-4.29-53.98-12.03-32.85-26.76,.02,0,.04-.01,.05-.03,3.77-2.61,8.66-5.44,14.76-8.51,3.21-1.85,6.02-3.48,8.12-4.69,1.09-.63,1.98-1.15,2.65-1.54-38.12,9.31-54.87,7.16-39.99-13.94,2.63-3.73,6.25-8.07,10.93-13.03,2.39-2.84,4.48-5.34,6.04-7.21,.81-.97,1.48-1.76,1.98-2.35-32.61,21.77-49.08,25.48-42.36,.63,1.2-4.43,3.13-9.75,5.84-16.05,1.27-3.5,2.38-6.55,3.21-8.85,.43-1.17,.79-2.14,1.05-2.86-23.21,31.62-37.43,40.73-39.6,15.05-.38-4.56-.39-10.21,0-17.03v-12.49c-10.99,37.63-21.23,51.07-32.05,27.7v-.02c-1.93-4.15-3.87-9.47-5.84-16.03,0,0,0-.01,0-.03-1.28-3.48-2.39-6.52-3.21-8.81-.43-1.17-.78-2.15-1.04-2.87,2.54,39.13-2.48,55.25-20.65,37,0,0,0-.01,0-.01-3.23-3.25-6.88-7.58-10.97-13.08-2.39-2.84-4.48-5.34-6.05-7.2-.8-.96-1.46-1.75-1.95-2.34,15.78,35.9,16.57,52.77-6.74,41.83,0,0,0,0-.01,0-4.12-1.94-9-4.75-14.68-8.48-3.25-1.88-6.1-3.52-8.22-4.75-1.09-.63-2-1.15-2.67-1.54,27.11,28.35,33.62,43.92,7.97,41.61h0c-4.55-.41-10.11-1.39-16.74-2.95-3.68-.65-6.92-1.22-9.32-1.64-1.24-.22-2.26-.4-3.02-.53,35.19,17.38,46.63,29.8,21.65,36.39-4.41,1.17-9.96,2.15-16.72,2.94-3.67,.65-6.88,1.22-9.28,1.65-1.24,.21-2.25,.39-3.01,.53,39.01,4.29,54,12.05,32.8,26.79,0,0,0,0,0,0-3.75,2.6-8.64,5.44-14.73,8.49-3.22,1.86-6.05,3.49-8.15,4.71-1.09,.63-1.98,1.14-2.64,1.53,38.09-9.3,54.84-7.15,40.02,13.9-2.64,3.75-6.28,8.09-10.97,13.07-2.4,2.85-4.48,5.34-6.06,7.21-.8,.97-1.47,1.76-1.97,2.35,32.61-21.77,49.09-25.48,42.37-.63-1.2,4.42-3.13,9.74-5.84,16.02-1.28,3.5-2.4,6.57-3.23,8.87-.43,1.17-.78,2.15-1.04,2.87,23.21-31.62,37.43-40.73,39.59-15.05,.39,4.57,.4,10.23,0,17.06v12.44c11.01-37.66,21.24-51.09,32.08-27.65,1.91,4.15,3.85,9.45,5.81,15.99,0,0,0,.01,0,.03,1.27,3.48,2.38,6.53,3.21,8.82,.43,1.17,.79,2.15,1.05,2.86-2.54-39.17,2.49-55.29,20.68-36.94,3.23,3.24,6.87,7.57,10.94,13.03,2.39,2.84,4.47,5.33,6.04,7.19,.8,.97,1.47,1.77,1.97,2.35-15.78-35.9-16.57-52.77,6.74-41.83,0,0,0,0,.01,0,4.14,1.95,9.03,4.77,14.74,8.51,3.23,1.86,6.06,3.5,8.17,4.72,1.09,.63,1.99,1.15,2.66,1.54-27.11-28.36-33.62-43.93-7.97-41.61h.01c4.54,.41,10.1,1.39,16.72,2.95,3.68,.65,6.92,1.22,9.33,1.64,1.24,.22,2.26,.4,3.01,.53-35.16-17.36-46.61-29.78-21.71-36.37Zm-92.29,67.49c-40.19,0-72.77-32.58-72.77-72.77s32.58-72.77,72.77-72.77,72.77,32.58,72.77,72.77-32.58,72.77-72.77,72.77Z"/><path class="cls-1" d="M186.08,252.96c-4.64,35.73-37.36,60.94-73.08,56.3-35.73-4.63-60.94-37.35-56.31-73.08,4.64-35.73,37.36-60.93,73.09-56.3,17.15,2.23,31.88,10.93,42.04,23.32-4.42-4.75-13.58-12.75-28.36-17.29,0,0-17.87-6.05-35.24,.63-17.36,6.68-26.54,19.92-26.54,19.92,0,0-11.03,13.86-9.4,33.92,0,0,.62,14.92,9.71,25.03,0,0,12.39,14.27,32.1,9.95,0,0,16.31-2.39,21.67-21.73,0,0,3.57-12.4-5.37-24.46,0,0-17.13-20.88-40.56-4.47,0,0-.5-15.87,16.05-27.57,0,0,16.6-13.75,46.02-2.87,0,0,14.65,5.51,22.46,12.24,9.33,12.97,13.93,29.36,11.72,46.45Z"/></g><g><path class="cls-1" d="M279.72,237.03v-50.29h-7.39v-11.96h27.25v11.96h-7.39v50.29h-12.46Z"/><path class="cls-1" d="M303.78,237.03v-62.25h12.39v22.25h5.87v-22.25h12.39v62.25h-12.39v-28.26h-5.87v28.26h-12.39Z"/><path class="cls-1" d="M340.67,237.03v-62.25h24.93v12.03h-12.25v12.1h11.74v11.74h-11.74v14.28h13.04v12.1h-25.73Z"/><path class="cls-1" d="M388.2,174.78h16.88c4.54,0,7.84,1.11,9.89,3.33,2.05,2.22,3.08,5.85,3.08,10.87v2.75c0,5.94-2.13,9.49-6.38,10.65,2.61,.68,4.44,2.25,5.51,4.71,1.06,2.46,1.59,5.73,1.59,9.78,0,6.62-.99,11.63-2.97,15.04-1.98,3.41-5.56,5.11-10.73,5.11h-16.88v-62.25Zm14.71,23.41c1.06,0,1.79-.4,2.17-1.19,.39-.8,.58-1.92,.58-3.37v-6.23c0-2.03-.89-3.04-2.68-3.04h-2.61v13.84h2.54Zm3.55,23.26v-7.75c0-1.88-.28-3.31-.83-4.28-.56-.97-1.53-1.45-2.93-1.45h-2.32v18.04l1.23,.07c3.24,0,4.85-1.55,4.85-4.64Z"/><path class="cls-1" d="M423.64,174.78h19.13c3.04,0,5.4,.69,7.07,2.07s2.79,3.31,3.37,5.8c.58,2.49,.87,5.66,.87,9.53,0,3.53-.46,6.28-1.38,8.26-.92,1.98-2.51,3.36-4.78,4.13,1.88,.39,3.25,1.33,4.09,2.83,.84,1.5,1.27,3.53,1.27,6.09l-.14,23.55h-12.17v-24.35c0-1.74-.34-2.85-1.01-3.33-.68-.48-1.91-.73-3.7-.73v28.41h-12.61v-62.25Zm15.65,23.05c1.74,0,2.61-1.88,2.61-5.65,0-1.64-.07-2.87-.22-3.7-.14-.82-.41-1.39-.8-1.7-.39-.31-.94-.47-1.67-.47h-2.9v11.52h2.97Z"/><path class="cls-1" d="M458.35,237.03v-62.25h12.03v62.25h-12.03Z"/><path class="cls-1" d="M478.9,232.86c-2.2-3.16-3.3-7.96-3.3-14.38v-26.81c0-5.75,1.28-10.1,3.84-13.04s6.38-4.42,11.45-4.42c4.11,0,7.29,.82,9.57,2.46,2.27,1.64,3.84,4.03,4.71,7.17,.87,3.14,1.3,7.17,1.3,12.1h-12.17v-5.58c0-1.5-.21-2.66-.62-3.48-.41-.82-1.15-1.23-2.21-1.23-2.37,0-3.55,1.55-3.55,4.64v30.15c0,1.88,.24,3.31,.73,4.28,.48,.97,1.33,1.45,2.54,1.45s2.05-.48,2.54-1.45c.48-.97,.72-2.39,.72-4.28v-8.91h-3.33v-10.73h15.22v36.23h-5l-2.1-5.22c-2.22,3.87-5.65,5.8-10.29,5.8s-7.84-1.58-10.04-4.75Z"/><path class="cls-1" d="M511.98,237.03v-62.25h12.39v22.25h5.87v-22.25h12.39v62.25h-12.39v-28.26h-5.87v28.26h-12.39Z"/><path class="cls-1" d="M554.23,237.03v-50.29h-7.39v-11.96h27.25v11.96h-7.39v50.29h-12.46Z"/><path class="cls-1" d="M578.28,237.03v-62.25h24.93v12.03h-12.25v12.1h11.74v11.74h-11.74v14.28h13.04v12.1h-25.73Z"/><path class="cls-1" d="M608.87,174.78h19.13c3.04,0,5.4,.69,7.07,2.07s2.79,3.31,3.37,5.8c.58,2.49,.87,5.66,.87,9.53,0,3.53-.46,6.28-1.38,8.26-.92,1.98-2.51,3.36-4.78,4.13,1.88,.39,3.25,1.33,4.09,2.83,.84,1.5,1.27,3.53,1.27,6.09l-.14,23.55h-12.17v-24.35c0-1.74-.34-2.85-1.01-3.33-.68-.48-1.91-.73-3.7-.73v28.41h-12.61v-62.25Zm15.65,23.05c1.74,0,2.61-1.88,2.61-5.65,0-1.64-.07-2.87-.22-3.7-.14-.82-.41-1.39-.8-1.7-.39-.31-.94-.47-1.67-.47h-2.9v11.52h2.97Z"/></g><g><path class="cls-2" d="M365.61,252.51l-21.52,80.17h-2.28l-23.8-76.42-23.8,76.42h-2.05l-21.52-80.17h2.51l20.16,75.73,23.46-75.73h2.51l23.69,76.07,20.16-76.07h2.51Z"/><path class="cls-2" d="M394.93,328.41c-5.81-3.45-10.35-8.29-13.61-14.52-3.27-6.22-4.9-13.29-4.9-21.18s1.63-14.96,4.9-21.18c3.26-6.22,7.8-11.06,13.61-14.52,5.81-3.45,12.39-5.18,19.76-5.18s13.95,1.73,19.76,5.18c5.81,3.45,10.34,8.3,13.61,14.52,3.26,6.23,4.9,13.29,4.9,21.18s-1.63,14.96-4.9,21.18c-3.27,6.23-7.8,11.07-13.61,14.52-5.81,3.46-12.4,5.18-19.76,5.18s-13.95-1.73-19.76-5.18Zm37.98-1.59c5.47-3.15,9.77-7.67,12.93-13.55,3.15-5.88,4.73-12.73,4.73-20.56s-1.58-14.67-4.73-20.56c-3.15-5.88-7.46-10.4-12.93-13.55-5.47-3.15-11.54-4.73-18.22-4.73s-12.75,1.58-18.22,4.73c-5.47,3.15-9.78,7.67-12.93,13.55-3.15,5.88-4.73,12.74-4.73,20.56s1.58,14.67,4.73,20.56c3.15,5.89,7.46,10.4,12.93,13.55,5.47,3.15,11.54,4.73,18.22,4.73s12.75-1.57,18.22-4.73Z"/><path class="cls-2" d="M513.31,332.68l-21.41-34.96h-20.16v34.96h-2.28v-80.17h20.04c8.81,0,15.36,2.01,19.64,6.04,4.29,4.02,6.43,9.53,6.43,16.51,0,6.45-1.82,11.62-5.47,15.49-3.64,3.87-8.85,6.19-15.6,6.95l21.64,35.19h-2.85Zm-23.57-37.13c7.82,0,13.68-1.86,17.59-5.58,3.91-3.72,5.86-8.69,5.86-14.92,0-13.51-7.9-20.27-23.69-20.27h-17.77v40.77h17.99Z"/><path class="cls-2" d="M532.67,330.63h30.75v2.05h-33.03v-80.17h2.28v78.12Z"/><path class="cls-2" d="M627.99,262.99c7.21,6.99,10.82,16.85,10.82,29.61s-3.61,22.63-10.82,29.61c-7.21,6.99-17.73,10.48-31.55,10.48h-21.07v-80.17h21.07c13.82,0,24.33,3.49,31.55,10.48Zm-1.59,57.62c6.76-6.68,10.13-16.02,10.13-28.02s-3.38-21.33-10.13-28.02c-6.76-6.68-16.74-10.02-29.95-10.02h-18.79v76.07h18.79c13.21,0,23.19-3.34,29.95-10.02Z"/></g></svg>