<?xml version="1.0" encoding="UTF-8"?><svg xmlns="http://www.w3.org/2000/svg" viewBox="0 0 341.57 489.14"><defs><style>.cls-1,.cls-2{fill:#fff;}.cls-3{fill:#fcc80d;}.cls-4{fill:#7d7d7d;stroke:#7d7d7d;}.cls-4,.cls-2{stroke-miterlimit:10;}.cls-2{stroke:#fff;}</style></defs><g id="Layer_1"><g><g><path class="cls-3" d="m154.21,246.56s0,0,.01,0c1.67-.44,3.76-.81,6.31-1.11,1.38-.24,2.59-.46,3.49-.62.47-.08.85-.15,1.13-.2-14.67-1.61-20.32-4.53-12.36-10.07,0,0,.01,0,.02-.01,1.42-.98,3.26-2.05,5.56-3.2,1.21-.7,2.27-1.31,3.06-1.77.41-.24.75-.43,1-.58-14.35,3.5-20.65,2.69-15.05-5.25.99-1.4,2.35-3.04,4.11-4.9.9-1.07,1.69-2.01,2.27-2.71.3-.36.56-.66.74-.89-12.28,8.19-18.47,9.59-15.94.24.45-1.67,1.18-3.67,2.2-6.04.48-1.32.9-2.47,1.21-3.33.16-.44.3-.81.4-1.08-8.74,11.9-14.09,15.33-14.9,5.67-.14-1.71-.15-3.84,0-6.41v-4.7c-4.14,14.16-7.99,19.22-12.06,10.43h0c-.72-1.57-1.46-3.57-2.2-6.04,0,0,0,0,0-.01-.48-1.31-.9-2.46-1.21-3.32-.16-.44-.29-.81-.39-1.08.95,14.73-.93,20.79-7.77,13.93,0,0,0,0,0,0-1.22-1.22-2.59-2.85-4.13-4.92-.9-1.07-1.69-2.01-2.28-2.71-.3-.36-.55-.66-.74-.88,5.94,13.51,6.24,19.86-2.54,15.74,0,0,0,0,0,0-1.55-.73-3.39-1.79-5.53-3.19-1.22-.71-2.3-1.32-3.09-1.79-.41-.24-.75-.43-1-.58,10.2,10.67,12.65,16.53,3,15.66h0c-1.71-.16-3.8-.52-6.3-1.11-1.39-.24-2.6-.46-3.51-.62-.47-.08-.85-.15-1.14-.2,13.25,6.54,17.55,11.22,8.15,13.7-1.66.44-3.75.81-6.29,1.11-1.38.25-2.59.46-3.49.62-.47.08-.85.15-1.13.2,14.68,1.62,20.32,4.53,12.34,10.08,0,0,0,0,0,0-1.41.98-3.25,2.05-5.54,3.2-1.21.7-2.28,1.31-3.07,1.77-.41.24-.74.43-1,.58,14.34-3.5,20.64-2.69,15.06,5.23-.99,1.41-2.36,3.04-4.13,4.92-.9,1.07-1.69,2.01-2.28,2.72-.3.36-.55.66-.74.88,12.28-8.19,18.48-9.59,15.95-.24-.45,1.66-1.18,3.66-2.2,6.03-.48,1.32-.9,2.47-1.21,3.34-.16.44-.29.81-.39,1.08,8.74-11.9,14.09-15.33,14.9-5.66.15,1.72.15,3.85,0,6.42v4.68c4.14-14.17,8-19.23,12.07-10.41.72,1.56,1.45,3.56,2.19,6.02,0,0,0,0,0,.01.48,1.31.9,2.46,1.21,3.32.16.44.3.81.4,1.08-.96-14.74.94-20.81,7.78-13.9,1.21,1.22,2.58,2.85,4.12,4.91.9,1.07,1.68,2.01,2.27,2.7.3.36.55.67.74.89-5.94-13.51-6.24-19.86,2.54-15.74,0,0,0,0,0,0,1.56.73,3.4,1.79,5.55,3.2,1.21.7,2.28,1.32,3.08,1.78.41.24.75.43,1,.58-10.2-10.67-12.65-16.53-3-15.66h0c1.71.16,3.8.52,6.29,1.11,1.39.24,2.6.46,3.51.62.47.08.85.15,1.13.2-13.23-6.53-17.54-11.21-8.17-13.69Zm-34.74,25.4c-15.13,0-27.39-12.26-27.39-27.39s12.26-27.39,27.39-27.39,27.39,12.26,27.39,27.39-12.26,27.39-27.39,27.39Z"/><path class="cls-3" d="m143.82,247.73c-1.75,13.45-14.06,22.94-27.51,21.19-13.45-1.74-22.94-14.06-21.19-27.51,1.75-13.45,14.06-22.93,27.51-21.19,6.46.84,12,4.11,15.82,8.78-1.66-1.79-5.11-4.8-10.67-6.51,0,0-6.73-2.28-13.26.24-6.53,2.51-9.99,7.5-9.99,7.5,0,0-4.15,5.22-3.54,12.77,0,0,.23,5.61,3.65,9.42,0,0,4.66,5.37,12.08,3.75,0,0,6.14-.9,8.16-8.18,0,0,1.34-4.67-2.02-9.21,0,0-6.45-7.86-15.27-1.68,0,0-.19-5.97,6.04-10.38,0,0,6.25-5.18,17.32-1.08,0,0,5.51,2.08,8.45,4.61,3.51,4.88,5.24,11.05,4.41,17.48Z"/></g><g><g><path class="cls-3" d="m171.51,240.07v-13.41h-1.97v-3.19h7.26v3.19h-1.97v13.41h-3.32Z"/><path class="cls-3" d="m177.93,240.07v-16.6h3.3v5.93h1.56v-5.93h3.3v16.6h-3.3v-7.54h-1.56v7.54h-3.3Z"/><path class="cls-3" d="m187.76,240.07v-16.6h6.65v3.21h-3.27v3.23h3.13v3.13h-3.13v3.81h3.48v3.23h-6.86Z"/><path class="cls-3" d="m200.44,223.47h4.5c1.21,0,2.09.3,2.64.89.55.59.82,1.56.82,2.9v.73c0,1.58-.57,2.53-1.7,2.84.7.18,1.19.6,1.47,1.26.28.66.42,1.53.42,2.61,0,1.77-.26,3.1-.79,4.01-.53.91-1.48,1.36-2.86,1.36h-4.5v-16.6Zm3.92,6.24c.28,0,.48-.11.58-.32.1-.21.15-.51.15-.9v-1.66c0-.54-.24-.81-.71-.81h-.7v3.69h.68Zm.95,6.2v-2.07c0-.5-.07-.88-.22-1.14-.15-.26-.41-.39-.78-.39h-.62v4.81l.33.02c.86,0,1.29-.41,1.29-1.24Z"/><path class="cls-3" d="m209.89,223.47h5.1c.81,0,1.44.18,1.88.55s.74.88.9,1.55c.15.66.23,1.51.23,2.54,0,.94-.12,1.67-.37,2.2-.24.53-.67.9-1.28,1.1.5.1.87.35,1.09.75.23.4.34.94.34,1.62l-.04,6.28h-3.25v-6.49c0-.46-.09-.76-.27-.89-.18-.13-.51-.19-.99-.19v7.57h-3.36v-16.6Zm4.17,6.14c.46,0,.7-.5.7-1.51,0-.44-.02-.77-.06-.99-.04-.22-.11-.37-.21-.45-.1-.08-.25-.13-.44-.13h-.77v3.07h.79Z"/><path class="cls-3" d="m219.14,240.07v-16.6h3.21v16.6h-3.21Z"/><path class="cls-3" d="m224.62,238.96c-.59-.84-.88-2.12-.88-3.84v-7.15c0-1.53.34-2.69,1.02-3.48s1.7-1.18,3.05-1.18c1.09,0,1.94.22,2.55.66.61.44,1.02,1.08,1.26,1.91.23.84.35,1.91.35,3.23h-3.25v-1.49c0-.4-.05-.71-.16-.93-.11-.22-.31-.33-.59-.33-.63,0-.95.41-.95,1.24v8.04c0,.5.06.88.19,1.14.13.26.35.39.68.39s.55-.13.68-.39c.13-.26.19-.64.19-1.14v-2.38h-.89v-2.86h4.06v9.66h-1.33l-.56-1.39c-.59,1.03-1.51,1.55-2.74,1.55s-2.09-.42-2.68-1.27Z"/><path class="cls-3" d="m233.44,240.07v-16.6h3.3v5.93h1.57v-5.93h3.3v16.6h-3.3v-7.54h-1.57v7.54h-3.3Z"/><path class="cls-3" d="m244.7,240.07v-13.41h-1.97v-3.19h7.27v3.19h-1.97v13.41h-3.32Z"/><path class="cls-3" d="m251.12,240.07v-16.6h6.65v3.21h-3.27v3.23h3.13v3.13h-3.13v3.81h3.48v3.23h-6.86Z"/><path class="cls-3" d="m259.27,223.47h5.1c.81,0,1.44.18,1.88.55s.74.88.9,1.55c.15.66.23,1.51.23,2.54,0,.94-.12,1.67-.37,2.2-.24.53-.67.9-1.28,1.1.5.1.87.35,1.09.75.23.4.34.94.34,1.62l-.04,6.28h-3.25v-6.49c0-.46-.09-.76-.27-.89-.18-.13-.51-.19-.99-.19v7.57h-3.36v-16.6Zm4.17,6.14c.46,0,.7-.5.7-1.51,0-.44-.02-.77-.06-.99-.04-.22-.11-.37-.21-.45-.1-.08-.25-.13-.44-.13h-.77v3.07h.79Z"/></g><g><path class="cls-4" d="m194.41,244.2l-5.74,21.38h-.61l-6.35-20.37-6.35,20.37h-.55l-5.74-21.38h.67l5.37,20.19,6.26-20.19h.67l6.32,20.28,5.37-20.28h.67Z"/><path class="cls-4" d="m202.23,264.44c-1.55-.92-2.76-2.21-3.63-3.87-.87-1.66-1.31-3.54-1.31-5.65s.43-3.99,1.31-5.65c.87-1.66,2.08-2.95,3.63-3.87,1.55-.92,3.3-1.38,5.27-1.38s3.72.46,5.27,1.38c1.55.92,2.76,2.21,3.63,3.87.87,1.66,1.31,3.54,1.31,5.65s-.44,3.99-1.31,5.65c-.87,1.66-2.08,2.95-3.63,3.87-1.55.92-3.3,1.38-5.27,1.38s-3.72-.46-5.27-1.38Zm10.13-.42c1.46-.84,2.61-2.04,3.45-3.61.84-1.57,1.26-3.4,1.26-5.48s-.42-3.91-1.26-5.48c-.84-1.57-1.99-2.77-3.45-3.61-1.46-.84-3.08-1.26-4.86-1.26s-3.4.42-4.86,1.26c-1.46.84-2.61,2.04-3.45,3.61-.84,1.57-1.26,3.4-1.26,5.48s.42,3.91,1.26,5.48c.84,1.57,1.99,2.77,3.45,3.61,1.46.84,3.08,1.26,4.86,1.26s3.4-.42,4.86-1.26Z"/><path class="cls-4" d="m233.79,265.57l-5.71-9.32h-5.37v9.32h-.61v-21.38h5.34c2.35,0,4.09.54,5.24,1.61,1.14,1.07,1.72,2.54,1.72,4.4,0,1.72-.49,3.1-1.46,4.13-.97,1.03-2.36,1.65-4.16,1.85l5.77,9.38h-.76Zm-6.29-9.9c2.08,0,3.65-.5,4.69-1.49,1.04-.99,1.56-2.32,1.56-3.98,0-3.6-2.11-5.4-6.32-5.4h-4.74v10.87h4.8Z"/><path class="cls-4" d="m238.96,265.03h8.2v.55h-8.81v-21.38h.61v20.83Z"/><path class="cls-4" d="m264.37,246.99c1.92,1.86,2.88,4.49,2.88,7.89s-.96,6.03-2.88,7.89c-1.92,1.86-4.73,2.79-8.41,2.79h-5.62v-21.38h5.62c3.68,0,6.49.93,8.41,2.79Zm-.42,15.36c1.8-1.78,2.7-4.27,2.7-7.47s-.9-5.69-2.7-7.47c-1.8-1.78-4.46-2.67-7.99-2.67h-5.01v20.28h5.01c3.52,0,6.18-.89,7.99-2.67Z"/></g></g></g></g><g id="Layer_1_copy"><g><g><path class="cls-1" d="m154.21,246.56s0,0,.01,0c1.67-.44,3.76-.81,6.31-1.11,1.38-.24,2.59-.46,3.49-.62.47-.08.85-.15,1.13-.2-14.67-1.61-20.32-4.53-12.36-10.07,0,0,.01,0,.02-.01,1.42-.98,3.26-2.05,5.56-3.2,1.21-.7,2.27-1.31,3.06-1.77.41-.24.75-.43,1-.58-14.35,3.5-20.65,2.69-15.05-5.25.99-1.4,2.35-3.04,4.11-4.9.9-1.07,1.69-2.01,2.27-2.71.3-.36.56-.66.74-.89-12.28,8.19-18.47,9.59-15.94.24.45-1.67,1.18-3.67,2.2-6.04.48-1.32.9-2.47,1.21-3.33.16-.44.3-.81.4-1.08-8.74,11.9-14.09,15.33-14.9,5.67-.14-1.71-.15-3.84,0-6.41v-4.7c-4.14,14.16-7.99,19.22-12.06,10.43h0c-.72-1.57-1.46-3.57-2.2-6.04,0,0,0,0,0-.01-.48-1.31-.9-2.46-1.21-3.32-.16-.44-.29-.81-.39-1.08.95,14.73-.93,20.79-7.77,13.93,0,0,0,0,0,0-1.22-1.22-2.59-2.85-4.13-4.92-.9-1.07-1.69-2.01-2.28-2.71-.3-.36-.55-.66-.74-.88,5.94,13.51,6.24,19.86-2.54,15.74,0,0,0,0,0,0-1.55-.73-3.39-1.79-5.53-3.19-1.22-.71-2.3-1.32-3.09-1.79-.41-.24-.75-.43-1-.58,10.2,10.67,12.65,16.53,3,15.66h0c-1.71-.16-3.8-.52-6.3-1.11-1.39-.24-2.6-.46-3.51-.62-.47-.08-.85-.15-1.14-.2,13.25,6.54,17.55,11.22,8.15,13.7-1.66.44-3.75.81-6.29,1.11-1.38.25-2.59.46-3.49.62-.47.08-.85.15-1.13.2,14.68,1.62,20.32,4.53,12.34,10.08,0,0,0,0,0,0-1.41.98-3.25,2.05-5.54,3.2-1.21.7-2.28,1.31-3.07,1.77-.41.24-.74.43-1,.58,14.34-3.5,20.64-2.69,15.06,5.23-.99,1.41-2.36,3.04-4.13,4.92-.9,1.07-1.69,2.01-2.28,2.72-.3.36-.55.66-.74.88,12.28-8.19,18.48-9.59,15.95-.24-.45,1.66-1.18,3.66-2.2,6.03-.48,1.32-.9,2.47-1.21,3.34-.16.44-.29.81-.39,1.08,8.74-11.9,14.09-15.33,14.9-5.66.15,1.72.15,3.85,0,6.42v4.68c4.14-14.17,8-19.23,12.07-10.41.72,1.56,1.45,3.56,2.19,6.02,0,0,0,0,0,.01.48,1.31.9,2.46,1.21,3.32.16.44.3.81.4,1.08-.96-14.74.94-20.81,7.78-13.9,1.21,1.22,2.58,2.85,4.12,4.91.9,1.07,1.68,2.01,2.27,2.7.3.36.55.67.74.89-5.94-13.51-6.24-19.86,2.54-15.74,0,0,0,0,0,0,1.56.73,3.4,1.79,5.55,3.2,1.21.7,2.28,1.32,3.08,1.78.41.24.75.43,1,.58-10.2-10.67-12.65-16.53-3-15.66h0c1.71.16,3.8.52,6.29,1.11,1.39.24,2.6.46,3.51.62.47.08.85.15,1.13.2-13.23-6.53-17.54-11.21-8.17-13.69Zm-34.74,25.4c-15.13,0-27.39-12.26-27.39-27.39s12.26-27.39,27.39-27.39,27.39,12.26,27.39,27.39-12.26,27.39-27.39,27.39Z"/><path class="cls-1" d="m143.82,247.73c-1.75,13.45-14.06,22.94-27.51,21.19-13.45-1.74-22.94-14.06-21.19-27.51,1.75-13.45,14.06-22.93,27.51-21.19,6.46.84,12,4.11,15.82,8.78-1.66-1.79-5.11-4.8-10.67-6.51,0,0-6.73-2.28-13.26.24-6.53,2.51-9.99,7.5-9.99,7.5,0,0-4.15,5.22-3.54,12.77,0,0,.23,5.61,3.65,9.42,0,0,4.66,5.37,12.08,3.75,0,0,6.14-.9,8.16-8.18,0,0,1.34-4.67-2.02-9.21,0,0-6.45-7.86-15.27-1.68,0,0-.19-5.97,6.04-10.38,0,0,6.25-5.18,17.32-1.08,0,0,5.51,2.08,8.45,4.61,3.51,4.88,5.24,11.05,4.41,17.48Z"/></g><g><g><path class="cls-1" d="m171.51,240.07v-13.41h-1.97v-3.19h7.26v3.19h-1.97v13.41h-3.32Z"/><path class="cls-1" d="m177.93,240.07v-16.6h3.3v5.93h1.56v-5.93h3.3v16.6h-3.3v-7.54h-1.56v7.54h-3.3Z"/><path class="cls-1" d="m187.76,240.07v-16.6h6.65v3.21h-3.27v3.23h3.13v3.13h-3.13v3.81h3.48v3.23h-6.86Z"/><path class="cls-1" d="m200.44,223.47h4.5c1.21,0,2.09.3,2.64.89.55.59.82,1.56.82,2.9v.73c0,1.58-.57,2.53-1.7,2.84.7.18,1.19.6,1.47,1.26.28.66.42,1.53.42,2.61,0,1.77-.26,3.1-.79,4.01-.53.91-1.48,1.36-2.86,1.36h-4.5v-16.6Zm3.92,6.24c.28,0,.48-.11.58-.32.1-.21.15-.51.15-.9v-1.66c0-.54-.24-.81-.71-.81h-.7v3.69h.68Zm.95,6.2v-2.07c0-.5-.07-.88-.22-1.14-.15-.26-.41-.39-.78-.39h-.62v4.81l.33.02c.86,0,1.29-.41,1.29-1.24Z"/><path class="cls-1" d="m209.89,223.47h5.1c.81,0,1.44.18,1.88.55s.74.88.9,1.55c.15.66.23,1.51.23,2.54,0,.94-.12,1.67-.37,2.2-.24.53-.67.9-1.28,1.1.5.1.87.35,1.09.75.23.4.34.94.34,1.62l-.04,6.28h-3.25v-6.49c0-.46-.09-.76-.27-.89-.18-.13-.51-.19-.99-.19v7.57h-3.36v-16.6Zm4.17,6.14c.46,0,.7-.5.7-1.51,0-.44-.02-.77-.06-.99-.04-.22-.11-.37-.21-.45-.1-.08-.25-.13-.44-.13h-.77v3.07h.79Z"/><path class="cls-1" d="m219.14,240.07v-16.6h3.21v16.6h-3.21Z"/><path class="cls-1" d="m224.62,238.96c-.59-.84-.88-2.12-.88-3.84v-7.15c0-1.53.34-2.69,1.02-3.48s1.7-1.18,3.05-1.18c1.09,0,1.94.22,2.55.66.61.44,1.02,1.08,1.26,1.91.23.84.35,1.91.35,3.23h-3.25v-1.49c0-.4-.05-.71-.16-.93-.11-.22-.31-.33-.59-.33-.63,0-.95.41-.95,1.24v8.04c0,.5.06.88.19,1.14.13.26.35.39.68.39s.55-.13.68-.39c.13-.26.19-.64.19-1.14v-2.38h-.89v-2.86h4.06v9.66h-1.33l-.56-1.39c-.59,1.03-1.51,1.55-2.74,1.55s-2.09-.42-2.68-1.27Z"/><path class="cls-1" d="m233.44,240.07v-16.6h3.3v5.93h1.57v-5.93h3.3v16.6h-3.3v-7.54h-1.57v7.54h-3.3Z"/><path class="cls-1" d="m244.7,240.07v-13.41h-1.97v-3.19h7.27v3.19h-1.97v13.41h-3.32Z"/><path class="cls-1" d="m251.12,240.07v-16.6h6.65v3.21h-3.27v3.23h3.13v3.13h-3.13v3.81h3.48v3.23h-6.86Z"/><path class="cls-1" d="m259.27,223.47h5.1c.81,0,1.44.18,1.88.55s.74.88.9,1.55c.15.66.23,1.51.23,2.54,0,.94-.12,1.67-.37,2.2-.24.53-.67.9-1.28,1.1.5.1.87.35,1.09.75.23.4.34.94.34,1.62l-.04,6.28h-3.25v-6.49c0-.46-.09-.76-.27-.89-.18-.13-.51-.19-.99-.19v7.57h-3.36v-16.6Zm4.17,6.14c.46,0,.7-.5.7-1.51,0-.44-.02-.77-.06-.99-.04-.22-.11-.37-.21-.45-.1-.08-.25-.13-.44-.13h-.77v3.07h.79Z"/></g><g><path class="cls-2" d="m194.41,244.2l-5.74,21.38h-.61l-6.35-20.37-6.35,20.37h-.55l-5.74-21.38h.67l5.37,20.19,6.26-20.19h.67l6.32,20.28,5.37-20.28h.67Z"/><path class="cls-2" d="m202.23,264.44c-1.55-.92-2.76-2.21-3.63-3.87-.87-1.66-1.31-3.54-1.31-5.65s.43-3.99,1.31-5.65c.87-1.66,2.08-2.95,3.63-3.87,1.55-.92,3.3-1.38,5.27-1.38s3.72.46,5.27,1.38c1.55.92,2.76,2.21,3.63,3.87.87,1.66,1.31,3.54,1.31,5.65s-.44,3.99-1.31,5.65c-.87,1.66-2.08,2.95-3.63,3.87-1.55.92-3.3,1.38-5.27,1.38s-3.72-.46-5.27-1.38Zm10.13-.42c1.46-.84,2.61-2.04,3.45-3.61.84-1.57,1.26-3.4,1.26-5.48s-.42-3.91-1.26-5.48c-.84-1.57-1.99-2.77-3.45-3.61-1.46-.84-3.08-1.26-4.86-1.26s-3.4.42-4.86,1.26c-1.46.84-2.61,2.04-3.45,3.61-.84,1.57-1.26,3.4-1.26,5.48s.42,3.91,1.26,5.48c.84,1.57,1.99,2.77,3.45,3.61,1.46.84,3.08,1.26,4.86,1.26s3.4-.42,4.86-1.26Z"/><path class="cls-2" d="m233.79,265.57l-5.71-9.32h-5.37v9.32h-.61v-21.38h5.34c2.35,0,4.09.54,5.24,1.61,1.14,1.07,1.72,2.54,1.72,4.4,0,1.72-.49,3.1-1.46,4.13-.97,1.03-2.36,1.65-4.16,1.85l5.77,9.38h-.76Zm-6.29-9.9c2.08,0,3.65-.5,4.69-1.49,1.04-.99,1.56-2.32,1.56-3.98,0-3.6-2.11-5.4-6.32-5.4h-4.74v10.87h4.8Z"/><path class="cls-2" d="m238.96,265.03h8.2v.55h-8.81v-21.38h.61v20.83Z"/><path class="cls-2" d="m264.37,246.99c1.92,1.86,2.88,4.49,2.88,7.89s-.96,6.03-2.88,7.89c-1.92,1.86-4.73,2.79-8.41,2.79h-5.62v-21.38h5.62c3.68,0,6.49.93,8.41,2.79Zm-.42,15.36c1.8-1.78,2.7-4.27,2.7-7.47s-.9-5.69-2.7-7.47c-1.8-1.78-4.46-2.67-7.99-2.67h-5.01v20.28h5.01c3.52,0,6.18-.89,7.99-2.67Z"/></g></g></g></g></svg>